<?xml version="1.0" standalone="no"?>
<!DOCTYPE svg PUBLIC "-//W3C//DTD SVG 20010904//EN"
 "http://www.w3.org/TR/2001/REC-SVG-20010904/DTD/svg10.dtd">
<svg version="1.0" xmlns="http://www.w3.org/2000/svg"
 width="131.000000pt" height="123.000000pt" viewBox="0 0 131.000000 123.000000"
 preserveAspectRatio="xMidYMid meet">

<g transform="translate(0.000000,123.000000) scale(0.100000,-0.100000)"
fill="#7a1e2b" stroke="none">
<path d="M772 974 c-52 -26 -83 -59 -96 -101 -5 -17 3 -37 35 -82 l43 -61 30
24 c17 13 50 33 72 44 37 19 41 24 35 49 -8 39 -55 153 -61 153 -4 0 -29 -12
-58 -26z"/>
<path d="M929 894 c-9 -9 -14 -25 -11 -40 4 -20 8 -23 31 -17 35 8 36 9 25 40
-11 33 -25 38 -45 17z"/>
<path d="M228 853 c-20 -5 -25 -48 -7 -58 6 -4 7 -19 4 -35 -7 -33 13 -87 43
-113 l21 -19 -14 45 c-20 68 1 124 58 154 23 12 27 17 16 24 -14 9 -90 10
-121 2z"/>
<path d="M421 838 c-77 -26 -131 -73 -131 -114 0 -33 40 -123 61 -140 8 -6 29
-14 47 -17 52 -10 121 -56 162 -109 34 -42 40 -46 49 -31 9 17 10 17 28 0 11
-9 22 -17 25 -17 8 0 18 52 28 147 5 45 16 95 25 113 19 36 15 53 -26 109 -60
84 -140 102 -268 59z"/>
<path d="M925 802 c-58 -24 -126 -66 -152 -94 -30 -32 -53 -90 -53 -135 0 -21
-8 -77 -18 -125 -10 -49 -15 -96 -10 -107 11 -30 40 -26 62 8 11 16 49 48 84
72 114 78 201 191 202 262 0 36 -24 88 -53 115 -21 19 -24 19 -62 4z"/>
<path d="M200 542 c0 -21 54 -52 129 -76 109 -35 142 -51 195 -91 26 -20 51
-33 56 -30 15 9 -10 62 -52 110 -61 70 -104 87 -225 93 -69 3 -103 1 -103 -6z"/>
<path d="M616 384 c-12 -32 -6 -131 8 -144 23 -18 59 -8 75 22 15 25 14 28
-12 48 -15 12 -27 29 -27 38 -1 17 -22 52 -33 52 -2 0 -8 -7 -11 -16z"/>
</g>
</svg>
